<svg xmlns="http://www.w3.org/2000/svg" xmlns:xlink="http://www.w3.org/1999/xlink" version="1.1" x="0px" y="0px" viewBox="0 0 64 64" enable-background="new 0 0 64 64" xml:space="preserve"><path d="M32,5v2c-4.411,0-8,3.589-8,8h-2C22,9.486,26.486,5,32,5z M55.935,20.048C55.979,19.694,56,19.344,56,19  c0-4.962-4.037-9-9-9c-0.625,0-1.247,0.066-1.858,0.196C43.144,4.735,37.874,1,32,1c-5.875,0-11.144,3.735-13.142,9.196  C18.247,10.065,17.625,10,17,10c-4.962,0-9,4.038-9,9c0,0.346,0.022,0.696,0.065,1.048C3.54,20.517,0,24.353,0,29  c0,4.963,4.038,9,9,9h9v-2H9c-3.86,0-7-3.141-7-7c0-3.857,3.135-6.995,7.077-6.995c0.003,0,0.006,0,0.009,0l0.142,0.009  c0.321,0.012,0.62-0.126,0.817-0.373c0.198-0.247,0.268-0.572,0.188-0.878C10.079,20.167,10,19.573,10,19c0-3.86,3.14-7,7-7  c0.744,0,1.484,0.12,2.2,0.357c0.258,0.086,0.54,0.063,0.781-0.065c0.241-0.127,0.419-0.347,0.494-0.608C21.943,6.571,26.683,3,32,3  s10.057,3.571,11.525,8.685c0.075,0.262,0.254,0.482,0.495,0.609c0.24,0.126,0.523,0.15,0.781,0.064C45.516,12.121,46.256,12,47,12  c3.859,0,7,3.14,7,7c0,0.576-0.076,1.153-0.234,1.765c-0.078,0.306-0.008,0.631,0.19,0.877s0.507,0.384,0.816,0.371L55,22  c3.859,0,7,3.14,7,7c0,3.859-3.141,7-7,7h-9v2h9c4.963,0,9-4.037,9-9C64,24.353,60.46,20.517,55.935,20.048z M34,38h2v-2h-2V38z   M34,42h2v-2h-2V42z M34,46h2v-2h-2V46z M34,62h2V48h-2V62z M28,62h2v-2h-2V62z M28,58h2v-2h-2V58z M28,54h2v-2h-2V54z M28,50h2V36  h-2V50z M55.898,48H58v2h-2.102c-0.464,2.279-2.484,4-4.898,4s-4.435-1.721-4.898-4H45c-1.336,0-2.592-0.521-3.536-1.465  C40.521,47.591,40,46.335,40,45V30h2v15c0,0.801,0.313,1.555,0.879,2.121C43.445,47.688,44.198,48,45,48h1.102  c0.464-2.279,2.484-4,4.898-4S55.435,45.721,55.898,48z M54,49c0-1.654-1.346-3-3-3s-3,1.346-3,3s1.346,3,3,3S54,50.654,54,49z   M50,50h2v-2h-2V50z M22,30h2v15c0,1.335-0.52,2.59-1.464,3.535C21.592,49.479,20.336,50,19,50h-1.101c-0.465,2.279-2.484,4-4.899,4  s-4.434-1.721-4.899-4H6v-2h2.101c0.465-2.279,2.484-4,4.899-4s4.434,1.721,4.899,4H19c0.802,0,1.555-0.312,2.121-0.879  C21.688,46.554,22,45.801,22,45V30z M16,49c0-1.654-1.346-3-3-3s-3,1.346-3,3s1.346,3,3,3S16,50.654,16,49z M12,50h2v-2h-2V50z"></path></svg>