<svg data-v-fde0c5aa="" xmlns="http://www.w3.org/2000/svg" viewBox="0 0 300 300" class="iconLeft"><!----><defs data-v-fde0c5aa=""><!----></defs><rect data-v-fde0c5aa="" fill="transparent" x="0" y="0" width="300px" height="300px" class="logo-background-square"></rect><defs data-v-fde0c5aa=""><!----></defs><g data-v-fde0c5aa="" id="97c0e636-48ed-42e6-83d9-ad0e9e57ba13" fill="#ffffff" transform="matrix(2.935078338373027,0,0,2.935078338373027,92.67118745623088,123.45221760504168)"><path d="M1.23 4.36L1.23 13.34C2.34 13.58 3.91 13.73 5.17 13.73C8.00 13.73 9.83 11.65 9.83 8.94C9.83 5.99 7.46 4.36 4.96 4.36ZM3.79 6.75L4.83 6.75C6.33 6.75 7.21 7.66 7.21 9.08C7.21 10.43 6.62 11.33 5.04 11.33C4.66 11.33 4.20 11.29 3.79 11.17ZM14.68 6.34C12.74 6.34 10.86 7.89 10.86 10.04C10.86 12.18 12.74 13.73 14.68 13.73C16.63 13.73 18.51 12.18 18.51 10.04C18.51 7.89 16.63 6.34 14.68 6.34ZM14.68 8.60C15.19 8.60 15.98 8.85 15.98 10.04C15.98 11.22 15.19 11.47 14.68 11.47C14.18 11.47 13.38 11.22 13.38 10.04C13.38 8.85 14.18 8.60 14.68 8.60ZM22.79 6.55L22.79 4.50L21.53 4.50C21.12 5.96 20.15 6.73 19.26 6.96L19.26 8.39L20.44 8.39L20.44 11.21C20.44 12.80 21.56 13.73 22.86 13.73C23.76 13.73 24.40 13.37 24.71 12.97L24.71 11.14C24.36 11.35 24.04 11.44 23.60 11.44C23.09 11.44 22.79 11.02 22.79 10.35L22.79 8.39L24.62 8.39L24.62 6.55ZM34.95 4.36L32.39 4.36L32.39 7.98L29.11 7.98L29.11 4.36L26.55 4.36L26.55 13.52L29.11 13.52L29.11 10.24L32.39 10.24L32.39 13.52L34.95 13.52ZM40.48 6.34C38.54 6.34 36.65 7.89 36.65 10.04C36.65 12.18 38.54 13.73 40.48 13.73C42.42 13.73 44.31 12.18 44.31 10.04C44.31 7.89 42.42 6.34 40.48 6.34ZM40.48 8.60C40.99 8.60 41.78 8.85 41.78 10.04C41.78 11.22 40.99 11.47 40.48 11.47C39.98 11.47 39.18 11.22 39.18 10.04C39.18 8.85 39.98 8.60 40.48 8.60ZM48.18 6.34C46.53 6.34 45.27 7.25 45.27 8.68C45.27 9.65 45.72 10.32 46.74 10.64L47.44 10.86C47.99 11.03 48.29 11.13 48.29 11.39C48.29 11.72 48.04 11.83 47.52 11.83C46.87 11.83 45.95 11.53 45.29 11.12L45.29 12.95C45.92 13.38 46.85 13.73 47.89 13.73C49.38 13.73 50.75 12.77 50.75 11.40C50.75 10.40 50.16 9.76 48.93 9.45L48.51 9.34C47.92 9.19 47.77 9.11 47.77 8.85C47.77 8.48 48.17 8.31 48.60 8.31C49.29 8.31 49.90 8.64 50.38 8.93L50.38 7.08C49.90 6.63 49.08 6.34 48.18 6.34ZM55.10 6.55L55.10 4.50L53.84 4.50C53.43 5.96 52.46 6.73 51.57 6.96L51.57 8.39L52.75 8.39L52.75 11.21C52.75 12.80 53.87 13.73 55.17 13.73C56.07 13.73 56.71 13.37 57.01 12.97L57.01 11.14C56.67 11.35 56.34 11.44 55.90 11.44C55.40 11.44 55.10 11.02 55.10 10.35L55.10 8.39L56.93 8.39L56.93 6.55Z"></path></g><defs data-v-fde0c5aa=""><!----></defs><g data-v-fde0c5aa="" id="7c20a9f0-0eaa-4ea1-822e-185278c0c6d9" stroke="none" fill="#ffffff" transform="matrix(0.6762708416939355,0,0,0.6762708416939355,40,128.69746848664104)"><path d="M32 5v2c-4.411 0-8 3.589-8 8h-2c0-5.514 4.486-10 10-10zm23.935 15.048c.044-.354.065-.704.065-1.048 0-4.962-4.037-9-9-9-.625 0-1.247.066-1.858.196C43.144 4.735 37.874 1 32 1c-5.875 0-11.144 3.735-13.142 9.196A8.856 8.856 0 0 0 17 10c-4.962 0-9 4.038-9 9 0 .346.022.696.065 1.048C3.54 20.517 0 24.353 0 29c0 4.963 4.038 9 9 9h9v-2H9c-3.86 0-7-3.141-7-7 0-3.857 3.135-6.995 7.077-6.995h.009l.142.009a.999.999 0 0 0 1.005-1.251A7.07 7.07 0 0 1 10 19c0-3.86 3.14-7 7-7 .744 0 1.484.12 2.2.357a.999.999 0 0 0 1.275-.673C21.943 6.571 26.683 3 32 3s10.057 3.571 11.525 8.685a1 1 0 0 0 1.276.673A6.98 6.98 0 0 1 47 12c3.859 0 7 3.14 7 7 0 .576-.076 1.153-.234 1.765-.078.306-.008.631.19.877s.507.384.816.371L55 22c3.859 0 7 3.14 7 7 0 3.859-3.141 7-7 7h-9v2h9c4.963 0 9-4.037 9-9 0-4.647-3.54-8.483-8.065-8.952zM34 38h2v-2h-2v2zm0 4h2v-2h-2v2zm0 4h2v-2h-2v2zm0 16h2V48h-2v14zm-6 0h2v-2h-2v2zm0-4h2v-2h-2v2zm0-4h2v-2h-2v2zm0-4h2V36h-2v14zm27.898-2H58v2h-2.102c-.464 2.279-2.484 4-4.898 4s-4.435-1.721-4.898-4H45a4.969 4.969 0 0 1-3.536-1.465A4.972 4.972 0 0 1 40 45V30h2v15c0 .801.313 1.555.879 2.121A2.976 2.976 0 0 0 45 48h1.102c.464-2.279 2.484-4 4.898-4s4.435 1.721 4.898 4zM54 49c0-1.654-1.346-3-3-3s-3 1.346-3 3 1.346 3 3 3 3-1.346 3-3zm-4 1h2v-2h-2v2zM22 30h2v15a4.97 4.97 0 0 1-1.464 3.535A4.969 4.969 0 0 1 19 50h-1.101c-.465 2.279-2.484 4-4.899 4s-4.434-1.721-4.899-4H6v-2h2.101c.465-2.279 2.484-4 4.899-4s4.434 1.721 4.899 4H19c.802 0 1.555-.312 2.121-.879A2.98 2.98 0 0 0 22 45V30zm-6 19c0-1.654-1.346-3-3-3s-3 1.346-3 3 1.346 3 3 3 3-1.346 3-3zm-4 1h2v-2h-2v2z"></path></g><!----></svg>