<svg data-v-fde0c5aa="" xmlns="http://www.w3.org/2000/svg" viewBox="0 0 300 300" class="font"><!----><defs data-v-fde0c5aa=""><!----></defs><rect data-v-fde0c5aa="" fill="transparent" x="0" y="0" width="300px" height="300px" class="logo-background-square"></rect><defs data-v-fde0c5aa=""><!----></defs><g data-v-fde0c5aa="" id="8b9fe0f8-d75a-482d-a213-212bb8ace4bc" fill="#ffffff" transform="matrix(3.9440660597800963,0,0,3.9440660597800963,35.14879867124339,114.32592406905792)"><path d="M1.23 4.36L1.23 13.34C2.34 13.58 3.91 13.73 5.17 13.73C8.00 13.73 9.83 11.65 9.83 8.94C9.83 5.99 7.46 4.36 4.96 4.36ZM3.79 6.75L4.83 6.75C6.33 6.75 7.21 7.66 7.21 9.08C7.21 10.43 6.62 11.33 5.04 11.33C4.66 11.33 4.20 11.29 3.79 11.17ZM14.68 6.34C12.74 6.34 10.86 7.89 10.86 10.04C10.86 12.18 12.74 13.73 14.68 13.73C16.63 13.73 18.51 12.18 18.51 10.04C18.51 7.89 16.63 6.34 14.68 6.34ZM14.68 8.60C15.19 8.60 15.98 8.85 15.98 10.04C15.98 11.22 15.19 11.47 14.68 11.47C14.18 11.47 13.38 11.22 13.38 10.04C13.38 8.85 14.18 8.60 14.68 8.60ZM22.79 6.55L22.79 4.50L21.53 4.50C21.12 5.96 20.15 6.73 19.26 6.96L19.26 8.39L20.44 8.39L20.44 11.21C20.44 12.80 21.56 13.73 22.86 13.73C23.76 13.73 24.40 13.37 24.71 12.97L24.71 11.14C24.36 11.35 24.04 11.44 23.60 11.44C23.09 11.44 22.79 11.02 22.79 10.35L22.79 8.39L24.62 8.39L24.62 6.55ZM34.95 4.36L32.39 4.36L32.39 7.98L29.11 7.98L29.11 4.36L26.55 4.36L26.55 13.52L29.11 13.52L29.11 10.24L32.39 10.24L32.39 13.52L34.95 13.52ZM40.48 6.34C38.54 6.34 36.65 7.89 36.65 10.04C36.65 12.18 38.54 13.73 40.48 13.73C42.42 13.73 44.31 12.18 44.31 10.04C44.31 7.89 42.42 6.34 40.48 6.34ZM40.48 8.60C40.99 8.60 41.78 8.85 41.78 10.04C41.78 11.22 40.99 11.47 40.48 11.47C39.98 11.47 39.18 11.22 39.18 10.04C39.18 8.85 39.98 8.60 40.48 8.60ZM48.18 6.34C46.53 6.34 45.27 7.25 45.27 8.68C45.27 9.65 45.72 10.32 46.74 10.64L47.44 10.86C47.99 11.03 48.29 11.13 48.29 11.39C48.29 11.72 48.04 11.83 47.52 11.83C46.87 11.83 45.95 11.53 45.29 11.12L45.29 12.95C45.92 13.38 46.85 13.73 47.89 13.73C49.38 13.73 50.75 12.77 50.75 11.40C50.75 10.40 50.16 9.76 48.93 9.45L48.51 9.34C47.92 9.19 47.77 9.11 47.77 8.85C47.77 8.48 48.17 8.31 48.60 8.31C49.29 8.31 49.90 8.64 50.38 8.93L50.38 7.08C49.90 6.63 49.08 6.34 48.18 6.34ZM55.10 6.55L55.10 4.50L53.84 4.50C53.43 5.96 52.46 6.73 51.57 6.96L51.57 8.39L52.75 8.39L52.75 11.21C52.75 12.80 53.87 13.73 55.17 13.73C56.07 13.73 56.71 13.37 57.01 12.97L57.01 11.14C56.67 11.35 56.34 11.44 55.90 11.44C55.40 11.44 55.10 11.02 55.10 10.35L55.10 8.39L56.93 8.39L56.93 6.55Z"></path></g><!----><!----></svg>